<svg xmlns="http://www.w3.org/2000/svg" viewBox="0 0 3120 952">
  <defs>
    <linearGradient id="gradient" x1="0%" y1="0%" x2="100%" y2="0%">
      <stop offset="0%" style="stop-color:#d57d77"/>
      <stop offset="50%" style="stop-color:#AA2ECC"/>
      <stop offset="100%" style="stop-color:#4b0082"/>
    </linearGradient>
  </defs>
  <g transform="rotate(180, 1560, 476)">
    <path d="M0 0 C514.8 0 1029.6 0 1560 0 C1558.7 3.25 1557.7 5.7 1555.9 8.55 C1555.5 9.24 1555.1 9.92 1554.6 10.62 C1553.9 11.74 1553.9 11.74 1553.2 12.88 C1552.7 13.68 1552.2 14.48 1551.6 15.31 C1532.1 45.77 1511.2 75.48 1489 104 C1488.6 104.54 1488.2 105.08 1487.7 105.63 C1473.4 124.07 1458.5 142.02 1442.6 159.12 C1441.3 160.59 1439.9 162.07 1438.6 163.6 C1432.8 170.44 1426.4 176.71 1420.1 183.04 C1418.1 185.06 1416 187.08 1414 189.11 C1407.9 195.28 1401.7 201.4 1395 207 C1394 207.85 1393.1 208.69 1392.1 209.56 C1331.6 261.68 1259.3 285.49 1179.7 279.9 C1158.3 278.31 1137.1 274.82 1116.1 270.5 C1114.9 270.25 1114.9 270.25 1113.7 270 C1092.5 265.64 1071.6 260.35 1050.7 255.06 C1028.3 249.4 1005.8 243.82 983.2 238.99 C982.3 238.8 981.5 238.62 980.6 238.43 C894.8 220.13 802.5 217.67 722.9 260.03 C721 261 719.1 261.94 717.2 262.86 C698.3 272.21 680.3 284.72 664 298 C662.7 299.06 661.4 300.12 660 301.17 C653.2 306.62 646.6 312.15 640.1 318.03 C638.2 319.85 636.2 321.62 634.1 323.38 C628.7 328.15 623.3 333.07 618 338 C617.4 338.59 616.7 339.18 616.1 339.79 C607.2 348.07 598.4 356.47 589.9 365.15 C586 369.07 582 372.76 577.9 376.35 C575.1 378.77 572.6 381.37 570 384 C566.2 387.89 562.3 391.63 558.1 395.17 C556 397.05 553.8 398.99 551.7 400.94 C546.2 406.07 540.6 411 534.7 415.69 C533.5 416.63 532.3 417.59 531.1 418.54 C500 443.56 465.2 463.35 426 472 C425.1 472.21 424.2 472.42 423.2 472.63 C394.8 478.79 361.2 479.2 333 472 C332.1 471.78 331.3 471.56 330.4 471.33 C307 465.25 284.6 455.1 265 441 C264.3 440.51 263.6 440.01 262.9 439.5 C251.7 431.55 241.2 423.16 231 414 C230.1 413.2 229.2 412.4 228.3 411.57 C226 409.4 223.4 407.2 221 405 C220.1 404.19 219.2 403.37 218.3 402.53 C208.3 393.39 198.4 384.11 188.6 374.8 C177.6 364.51 166.8 354.31 155 345 C154.4 344.51 153.8 344.02 153.1 343.51 C105.3 305.75 60.9 294.96 0 293 C0 196.31 0 99.62 0 0 Z " fill="url(#gradient)"/>
  </g>
</svg>
