<?xml version="1.0" standalone="no"?>
<!DOCTYPE svg PUBLIC "-//W3C//DTD SVG 20010904//EN"
 "http://www.w3.org/TR/2001/REC-SVG-20010904/DTD/svg10.dtd">
<svg version="1.0" xmlns="http://www.w3.org/2000/svg"
 width="300.000000pt" height="300.000000pt" viewBox="0 0 300.000000 300.000000"
 preserveAspectRatio="xMidYMid meet">
<metadata>
Created by potrace 1.10, written by Peter Selinger 2001-2011
</metadata>
<g transform="translate(0.000000,300.000000) scale(0.100000,-0.100000)"
fill="#000000" stroke="none">
<path d="M2930 2944 c-36 -19 -101 -54 -145 -78 -44 -24 -153 -83 -243 -131
-90 -48 -161 -89 -159 -91 2 -2 78 36 168 84 90 49 223 119 294 157 110 57
174 96 155 95 -3 -1 -34 -17 -70 -36z"/>
<path d="M2960 2891 c-14 -10 -126 -73 -250 -139 -386 -206 -459 -246 -454
-254 3 -4 -2 -5 -10 -2 -8 3 -24 -4 -35 -15 -12 -12 -21 -18 -21 -14 0 4 -7
-2 -16 -13 -8 -10 -12 -12 -8 -4 5 10 0 9 -14 -4 -12 -11 -22 -16 -22 -12 0 3
-13 0 -30 -9 -16 -9 -30 -20 -30 -25 0 -5 -10 -14 -21 -21 -16 -8 -20 -8 -14
1 12 19 -58 -21 -84 -48 l-23 -25 -19 24 c-11 13 -17 32 -15 42 2 9 3 17 1 17
-7 0 -55 -47 -55 -53 0 -4 18 -34 40 -68 22 -34 40 -70 40 -79 0 -19 49 -99
74 -119 14 -12 16 -12 11 0 -4 11 20 26 82 54 49 22 153 76 233 121 80 44 251
140 380 211 129 72 250 139 267 149 27 16 33 25 33 52 l0 34 -42 -25 c-24 -13
-72 -40 -108 -59 -36 -20 -144 -80 -240 -133 -160 -89 -384 -212 -542 -299
-35 -19 -62 -39 -61 -45 5 -18 -12 -12 -36 13 -25 27 -27 24 49 64 76 40 69
46 -9 7 -40 -20 -74 -35 -75 -33 -2 4 -40 81 -45 92 -2 5 3 7 12 3 23 -9 177
65 447 214 135 75 307 169 383 210 204 109 261 148 265 182 4 32 -4 33 -38 8z"/>
<path d="M2947 2729 c-26 -16 -50 -29 -53 -29 -4 0 -32 -15 -63 -34 -31 -18
-94 -54 -141 -79 -47 -25 -143 -77 -215 -117 -71 -40 -163 -90 -203 -112 -40
-22 -71 -42 -69 -44 2 -3 35 13 73 34 71 40 248 138 549 302 186 101 180 98
174 104 -2 3 -26 -8 -52 -25z"/>
<path d="M1805 2673 c-66 -35 -160 -85 -210 -110 -49 -26 -104 -56 -121 -68
-17 -11 -40 -25 -50 -31 -17 -11 -16 -13 19 -30 37 -17 37 -17 57 4 12 12 25
22 31 22 6 0 8 4 4 9 -3 5 5 13 17 17 13 4 39 17 58 29 19 12 100 57 178 100
79 43 146 85 149 92 13 34 -20 25 -132 -34z"/>
<path d="M1578 2591 c-122 -65 -123 -73 0 -12 56 28 102 53 102 56 0 9 -14 3
-102 -44z"/>
<path d="M2290 2599 c-209 -112 -300 -162 -296 -166 2 -2 44 18 92 45 49 27
130 70 179 96 79 42 119 67 105 66 -3 -1 -39 -19 -80 -41z"/>
<path d="M1006 2568 c9 -14 -48 -20 -96 -11 -35 7 -48 7 -47 -1 1 -6 -6 -10
-15 -10 -10 1 -15 -2 -12 -7 5 -9 -35 -22 -56 -17 -8 2 -15 -6 -17 -17 -3 -20
-3 -20 7 0 8 17 9 14 7 -14 -1 -19 -8 -37 -16 -39 -9 -3 -11 0 -6 8 5 9 4 11
-4 6 -6 -4 -8 -12 -5 -18 5 -8 1 -9 -10 -5 -9 4 -15 3 -11 -2 7 -12 -61 -34
-85 -28 -11 3 -25 -2 -32 -11 -11 -13 -11 -14 1 -7 11 6 13 4 8 -9 -4 -10 -7
-20 -7 -22 0 -3 -5 -2 -12 2 -7 4 -8 3 -4 -4 8 -13 -30 -36 -44 -27 -6 4 -9 1
-8 -6 2 -6 -3 -14 -11 -17 -9 -3 -11 0 -6 8 5 9 4 11 -4 6 -6 -4 -9 -11 -6
-16 3 -5 1 -11 -5 -15 -5 -3 -10 -34 -10 -69 0 -39 -5 -69 -15 -82 -25 -33
-17 -59 41 -140 116 -164 130 -170 356 -159 141 6 155 5 178 -12 14 -11 44
-25 68 -32 41 -12 42 -13 42 -55 0 -29 -6 -48 -17 -57 -15 -12 -16 -12 -9 6
26 63 17 88 -36 99 -17 3 -40 14 -51 23 -16 15 -40 17 -191 14 -230 -3 -233
-2 -353 164 -65 90 -70 107 -44 149 16 25 21 48 19 92 l-1 59 -6 -60 c-7 -59
-42 -145 -61 -145 -5 0 -7 -7 -4 -15 4 -9 0 -15 -9 -15 -9 0 -103 -44 -209
-99 -170 -87 -193 -102 -196 -125 -2 -14 -1 -26 2 -26 3 0 47 22 98 49 51 26
150 78 220 114 l127 66 44 -67 c24 -37 61 -84 81 -104 67 -68 81 -72 286 -79
259 -8 306 -26 265 -104 -26 -47 -13 -91 52 -182 31 -43 62 -92 69 -110 22
-52 18 -122 -11 -168 -23 -37 -37 -78 -15 -45 7 11 10 4 10 -26 0 -30 10 -56
39 -101 27 -42 54 -109 89 -223 28 -90 57 -167 64 -172 7 -4 22 -6 33 -3 11 2
66 5 122 5 l101 0 59 69 c124 147 126 150 131 205 4 43 11 58 46 94 22 24 64
57 92 73 81 47 98 69 91 126 -3 26 -13 73 -22 103 -35 122 16 211 189 325 88
58 190 215 159 246 -6 6 -27 3 -54 -7 -60 -21 -149 -33 -176 -23 -20 7 -60 65
-56 80 1 3 -8 4 -21 2 -14 -3 -34 5 -54 22 -31 26 -45 54 -19 39 6 -4 4 2 -7
14 -10 12 -22 19 -26 17 -12 -8 -90 85 -96 114 -7 34 -27 75 -66 135 l-32 48
28 23 c33 26 30 55 -6 55 -15 0 -19 3 -11 8 7 5 -4 8 -26 7 -22 0 -37 -3 -35
-7 8 -13 -41 -19 -70 -9 -15 6 -38 11 -52 11 -13 0 -24 4 -24 9 0 5 -10 7 -22
3 -12 -3 -19 -1 -15 5 11 17 -51 1 -69 -18 -23 -25 -45 -24 -103 6 -27 13 -69
29 -95 36 -55 14 -65 26 -38 45 11 8 23 24 25 37 4 21 4 21 6 -2 0 -14 -6 -33
-16 -43 -9 -10 -11 -18 -5 -18 6 0 16 -2 24 -5 9 -4 14 5 15 26 4 59 1 60
-169 62 -86 1 -154 -1 -152 -5z m281 -24 c2 -6 -8 -16 -22 -22 -47 -21 -27
-42 73 -77 51 -18 98 -37 105 -44 18 -18 45 -13 70 15 23 25 27 26 62 14 80
-26 167 -40 187 -29 20 11 88 4 88 -9 0 -4 -9 -13 -20 -20 -30 -19 -24 -53 20
-115 22 -30 40 -64 40 -74 0 -25 33 -76 105 -161 44 -53 70 -75 98 -84 20 -6
37 -15 37 -19 0 -4 12 -21 26 -38 23 -28 31 -31 85 -31 35 0 80 8 111 20 64
24 58 24 58 1 0 -10 -22 -52 -49 -93 -38 -59 -62 -83 -112 -115 -73 -46 -152
-120 -174 -163 -27 -53 -29 -110 -5 -203 28 -109 20 -137 -49 -172 -57 -29
-137 -98 -156 -136 -8 -15 -15 -45 -15 -65 0 -25 -9 -47 -27 -70 -16 -18 -55
-68 -88 -109 l-60 -75 -70 5 c-38 3 -92 1 -120 -4 -57 -11 -70 -4 -79 40 -17
87 -90 291 -121 339 -52 80 -54 108 -13 167 30 43 33 55 33 118 -1 82 -23 132
-105 239 -53 69 -59 86 -35 106 20 17 30 77 17 105 -7 15 -23 25 -48 29 -20 4
-48 16 -63 27 -23 17 -46 19 -220 22 l-193 2 -42 47 c-24 25 -65 78 -91 117
l-49 71 22 39 c15 27 22 56 22 94 l0 56 50 27 c31 17 53 36 56 50 4 17 17 25
53 34 70 17 111 44 111 75 0 16 7 28 18 31 9 3 33 13 52 23 26 14 41 16 60 9
14 -5 36 -6 50 -2 21 6 258 22 299 20 8 -1 16 -6 18 -12z m-151 -882 c-4 -11
13 -43 50 -91 81 -109 107 -164 108 -236 1 -51 -4 -67 -28 -103 -37 -54 -44
-48 -11 9 51 90 23 189 -97 343 -36 46 -46 75 -31 89 11 12 15 8 9 -11z"/>
<path d="M770 2160 l0 -80 35 0 c31 0 35 3 35 25 0 15 6 25 15 25 8 0 22 -11
31 -25 14 -21 24 -25 67 -25 l50 0 -23 25 c-13 14 -32 25 -43 25 -20 0 -20 1
1 23 27 29 28 41 2 67 -16 16 -33 20 -95 20 l-75 0 0 -80z m148 31 c17 -2 15
-30 -3 -37 -8 -4 -12 -11 -9 -16 4 -6 -3 -5 -16 2 -16 8 -30 9 -52 1 -17 -6
-32 -10 -33 -9 -7 9 -14 56 -9 61 5 5 75 4 122 -2z"/>
<path d="M995 2215 c-32 -31 -32 -65 1 -100 22 -24 31 -27 65 -22 55 7 79 31
79 78 0 46 -27 69 -83 69 -27 0 -45 -7 -62 -25z m100 -29 c24 -17 14 -43 -20
-52 -30 -8 -53 0 -61 21 -15 37 43 59 81 31z"/>
<path d="M1160 2181 c0 -52 3 -62 26 -80 19 -15 41 -21 79 -21 38 0 60 6 79
21 23 18 26 28 26 80 l0 59 -39 0 -40 0 -3 -52 c-3 -45 -6 -53 -23 -53 -18 0
-20 7 -20 53 l1 52 -43 0 -43 0 0 -59z m56 7 c4 -7 9 -27 11 -46 5 -42 -14
-39 -41 7 -16 28 -17 34 -5 42 19 12 26 11 35 -3z m128 -32 c-6 -26 -44 -57
-44 -37 0 5 5 13 11 17 6 3 9 17 6 30 -2 13 1 25 7 27 19 7 27 -9 20 -37z"/>
<path d="M1390 2214 l0 -26 65 7 c68 7 75 3 55 -36 -14 -25 -27 -24 -35 1 -12
37 -25 21 -25 -30 l0 -50 40 0 40 0 0 55 c0 52 1 55 25 55 20 0 25 5 25 25 0
25 0 25 -95 25 l-95 0 0 -26z"/>
<path d="M1592 2160 l-3 -80 86 0 c84 0 85 0 85 25 0 23 -4 25 -40 25 -22 0
-40 5 -40 10 0 6 11 10 25 10 14 0 25 5 25 11 0 6 -12 9 -27 7 -24 -2 -28 -8
-29 -33 0 -24 -4 -29 -20 -27 -27 5 -32 12 -36 52 l-3 35 73 -3 c72 -4 72 -3
72 22 0 26 0 26 -83 26 l-82 0 -3 -80z"/>
<path d="M770 1956 l0 -74 35 -4 35 -4 0 51 -1 50 -16 -35 -15 -35 -10 34 c-5
18 -7 36 -4 39 3 3 27 4 53 2 59 -3 69 -3 113 4 53 9 70 0 70 -39 0 -46 -18
-54 -32 -13 -12 33 -12 33 -19 8 -14 -51 -11 -58 30 -62 l40 -3 3 77 3 78 -67
0 c-43 0 -68 -4 -72 -12 -5 -10 -7 -10 -12 0 -4 8 -28 12 -70 12 l-64 0 0 -74z"/>
<path d="M1087 1953 c-15 -43 -27 -81 -27 -85 0 -5 11 -8 25 -8 18 0 26 7 31
25 5 20 13 25 35 25 22 0 32 -6 39 -25 7 -18 17 -25 36 -25 21 0 25 3 19 18
-4 9 -18 46 -30 82 -23 64 -24 65 -62 68 l-39 3 -27 -78z m85 4 c3 -17 0 -23
-13 -24 -11 -1 -19 7 -22 23 -3 18 0 24 13 24 10 0 19 -9 22 -23z"/>
<path d="M1288 2014 c-33 -17 -38 -58 -9 -73 16 -9 18 -8 14 8 -6 23 28 45 57
37 11 -4 29 -9 40 -12 17 -4 20 -1 20 25 0 30 -1 31 -47 31 -27 -1 -60 -8 -75
-16z"/>
<path d="M1430 1999 c0 -24 4 -30 15 -25 12 4 15 -5 15 -54 l0 -60 85 0 c84 0
85 0 85 25 0 22 -4 25 -39 25 -22 0 -43 5 -46 10 -4 6 7 10 24 10 21 0 31 5
31 15 0 10 -10 15 -30 15 -31 0 -35 -7 -30 -59 2 -23 1 -24 -20 -10 -25 17
-53 86 -38 95 9 6 77 -1 126 -13 19 -4 22 -1 22 26 l0 31 -100 0 -100 0 0 -31z"/>
<path d="M1644 2014 c3 -9 6 -47 6 -85 l0 -69 46 0 c44 0 46 1 40 25 -6 22 -3
25 20 25 16 0 34 -10 46 -25 16 -21 28 -25 69 -25 56 0 61 10 19 41 -29 22
-29 23 -10 36 28 19 25 48 -6 72 -23 18 -41 21 -131 21 -92 0 -104 -2 -99 -16z
m111 -34 c-3 -5 3 -10 15 -10 12 0 18 5 15 10 -8 13 26 13 60 0 20 -8 25 -15
20 -28 -4 -9 -7 -27 -6 -39 1 -31 -7 -29 -54 12 -42 36 -65 44 -65 22 0 -18
-39 -49 -55 -43 -20 7 -24 74 -5 80 32 8 81 6 75 -4z"/>
<path d="M860 1966 c0 -5 5 -26 12 -47 9 -33 16 -39 38 -39 23 0 29 6 39 41
15 51 11 56 -14 18 -11 -16 -22 -29 -25 -29 -3 0 -15 15 -27 33 -13 17 -23 28
-23 23z"/>
<path d="M1330 1944 c0 -9 9 -18 20 -21 11 -3 20 -9 20 -14 0 -13 -22 -22 -29
-12 -3 6 -25 13 -48 16 -41 7 -41 7 -34 -21 7 -25 11 -27 59 -27 35 1 57 7 71
19 26 24 27 52 2 66 -30 15 -61 12 -61 -6z"/>
<path d="M1465 1808 c-31 -18 -44 -40 -45 -76 0 -36 24 -41 26 -6 1 10 2 25 3
32 2 30 67 42 219 42 196 0 230 -12 223 -82 -1 -10 3 -18 8 -18 6 0 11 18 11
39 0 31 -6 44 -26 60 -25 20 -39 21 -213 21 -121 -1 -193 -5 -206 -12z"/>
<path d="M1491 1761 c-9 -15 -7 -20 9 -24 11 -3 20 -12 20 -21 0 -13 13 -16
70 -16 l71 0 -3 -92 -3 -93 -67 -3 c-62 -3 -68 -1 -92 25 -23 24 -26 35 -24
83 l3 55 78 1 c42 0 80 4 84 8 4 4 -42 5 -102 4 l-110 -3 -3 -62 c-3 -58 -1
-63 17 -63 11 0 30 -13 43 -30 l22 -30 163 0 162 0 23 31 c15 19 29 29 40 26
16 -5 18 3 18 64 l0 69 -110 0 c-66 0 -110 -4 -110 -10 0 -5 8 -9 18 -8 9 1
47 0 85 0 l67 -2 0 -58 c0 -49 -4 -62 -24 -81 -20 -19 -33 -22 -87 -19 l-64 3
-3 93 -3 92 71 0 c63 0 70 2 70 20 0 27 17 25 23 -2 3 -13 4 -5 4 17 -2 29 -7
41 -19 43 -14 3 -18 -3 -18 -27 l0 -31 -140 0 -140 0 0 30 c0 35 -23 41 -39
11z"/>
<path d="M1663 1773 c167 -5 169 -23 2 -23 -77 0 -125 -4 -125 -10 0 -6 50
-10 130 -10 l130 0 0 25 0 25 -132 -2 -133 -2 128 -3z"/>
<path d="M1398 1754 c-5 -4 -8 -97 -8 -206 0 -185 1 -199 20 -218 11 -11 27
-20 35 -20 10 0 15 -10 15 -30 0 -33 23 -44 76 -38 25 3 30 8 34 38 l5 35 93
3 92 3 0 -29 c0 -36 16 -52 53 -52 41 0 67 17 67 44 0 18 8 27 30 35 l30 10
-2 218 -2 218 -6 -214 -5 -215 -32 -8 c-26 -7 -32 -14 -35 -41 -3 -29 -6 -32
-38 -32 -32 0 -35 3 -36 30 -1 28 -1 28 3 3 4 -23 9 -28 34 -28 24 0 29 4 29
24 0 42 11 56 41 56 l30 0 -2 100 c-1 98 -2 100 -25 100 -13 0 -24 -4 -24 -8
0 -5 -9 -18 -20 -30 -20 -21 -29 -22 -185 -22 l-164 0 -23 30 c-12 17 -30 30
-40 30 -16 0 -18 -10 -18 -100 0 -100 0 -100 25 -100 26 0 45 -25 45 -59 0
-17 6 -21 29 -21 25 0 30 5 34 28 4 25 4 25 3 -3 -1 -28 -3 -30 -41 -30 -38 0
-40 2 -43 32 -2 24 -10 34 -32 42 l-30 10 -2 211 c-2 117 -6 208 -10 204z m75
-297 c-4 -6 -6 -29 -4 -50 1 -28 -2 -38 -11 -35 -8 3 -13 24 -14 59 -2 64 4
79 22 54 7 -10 10 -23 7 -28z m423 -25 c0 -45 -4 -62 -13 -62 -7 0 -14 6 -14
13 -8 85 -4 120 14 114 7 -2 12 -28 13 -65z m-126 28 c0 -6 -42 -10 -105 -10
-63 0 -105 4 -105 10 0 6 42 10 105 10 63 0 105 -4 105 -10z m-240 -15 c15
-18 5 -35 -21 -35 -24 0 -37 29 -18 41 19 12 25 11 39 -6z m319 -21 c-15 -19
-38 -18 -46 2 -8 21 16 35 40 23 14 -8 16 -13 6 -25z m-79 6 c0 -6 -42 -10
-105 -10 -63 0 -105 4 -105 10 0 6 42 10 105 10 63 0 105 -4 105 -10z m0 -30
c0 -6 -42 -10 -105 -10 -63 0 -105 4 -105 10 0 6 42 10 105 10 63 0 105 -4
105 -10z m-232 -41 c2 -9 -5 -19 -14 -23 -21 -8 -50 17 -39 34 10 16 49 8 53
-11z m232 11 c0 -6 -42 -10 -105 -10 -63 0 -105 4 -105 10 0 6 42 10 105 10
63 0 105 -4 105 -10z m85 0 c8 -13 -13 -40 -30 -40 -15 0 -28 27 -19 41 7 12
41 11 49 -1z m-88 -34 c4 -3 -42 -6 -101 -6 -59 0 -105 4 -102 9 6 9 194 6
203 -3z"/>
<path d="M1630 1596 c0 -44 -4 -55 -17 -59 -14 -4 -12 -5 5 -6 20 -1 22 3 22
59 0 33 -2 60 -5 60 -3 0 -5 -24 -5 -54z"/>
<path d="M1700 1605 c-3 -19 -4 -52 -1 -67 0 -5 16 -7 34 -7 29 2 29 2 5 6
-24 4 -27 10 -31 46 -2 23 -5 33 -7 22z"/>
<path d="M1380 855 c0 -5 7 -27 15 -50 8 -22 19 -59 25 -82 9 -37 14 -43 38
-43 l27 0 -24 13 c-18 9 -30 31 -47 85 -20 68 -34 98 -34 77z"/>
<path d="M2138 2286 c-58 -35 -58 -41 0 -12 28 14 52 29 52 31 0 9 -14 4 -52
-19z"/>
<path d="M2847 2143 c-75 -42 -136 -78 -134 -80 2 -2 69 33 148 77 79 44 140
80 134 80 -5 0 -72 -35 -148 -77z"/>
<path d="M2983 2146 c-6 -8 -9 -17 -5 -22 4 -4 1 -4 -7 1 -9 5 -19 1 -28 -11
-8 -10 -16 -18 -18 -16 -12 6 -26 1 -20 -8 3 -5 0 -7 -9 -4 -8 3 -23 -3 -33
-13 -11 -11 -24 -18 -30 -16 -6 2 -15 -1 -19 -8 -4 -8 -3 -9 4 -5 7 4 12 5 12
2 0 -3 -10 -10 -21 -17 -16 -8 -20 -8 -14 1 6 9 2 9 -14 1 -11 -7 -21 -16 -21
-21 0 -5 -14 -17 -31 -26 -18 -9 -28 -11 -24 -4 6 9 2 9 -14 1 -22 -12 -30
-27 -8 -16 6 4 3 -1 -8 -9 -11 -9 -25 -14 -32 -12 -7 3 -13 1 -13 -4 0 -5 -10
-14 -21 -21 -15 -8 -19 -8 -15 0 13 21 -5 11 -31 -16 -15 -16 -23 -22 -18 -15
6 11 3 12 -13 3 -11 -6 -22 -16 -25 -23 -5 -16 -47 18 -47 38 0 8 26 27 58 43
31 16 66 37 77 45 11 9 -14 -2 -55 -25 -41 -22 -82 -43 -90 -45 -11 -4 -14
-16 -12 -43 3 -31 -4 -50 -41 -107 -51 -78 -80 -107 -153 -152 -99 -62 -164
-147 -164 -214 0 -17 9 -71 21 -118 20 -79 20 -88 6 -122 -12 -28 -29 -44 -68
-65 -29 -15 -75 -48 -102 -74 -45 -41 -50 -50 -56 -102 -4 -42 -13 -66 -34
-89 -15 -18 -53 -64 -85 -103 -31 -38 -63 -75 -70 -80 -8 -6 -71 -11 -150 -10
-162 0 -141 -19 -203 195 -30 103 -51 159 -75 192 -18 25 -39 66 -46 90 l-12
43 -4 -33 c-3 -28 -5 -31 -23 -21 -24 12 -47 6 -113 -34 -48 -28 -290 -162
-741 -409 -279 -153 -265 -144 -265 -182 0 -43 30 -71 68 -63 16 3 102 47 193
98 274 153 618 343 724 399 149 78 155 84 156 133 0 36 2 39 10 19 5 -13 23
-44 41 -68 23 -32 45 -90 80 -212 29 -101 54 -172 64 -179 27 -20 281 -6 314
16 14 10 60 61 103 115 72 89 79 101 84 153 5 50 11 62 48 98 23 23 67 54 98
69 75 35 90 59 85 138 -3 59 -2 64 22 73 55 22 263 132 395 210 147 86 381
215 428 236 23 10 27 18 27 51 l0 39 -54 -35 c-30 -19 -73 -44 -96 -56 -22
-11 -38 -25 -35 -29 3 -5 -2 -12 -11 -15 -10 -4 -13 -2 -8 6 4 6 -26 -7 -67
-29 -41 -23 -73 -46 -72 -52 2 -6 -3 -8 -10 -5 -7 2 -66 -26 -132 -64 -66 -37
-165 -93 -220 -125 -98 -55 -170 -103 -117 -77 27 13 29 5 2 -10 -22 -12 -40
-1 -53 32 -7 19 8 29 359 228 191 109 289 171 154 98 -93 -51 -341 -190 -507
-285 -40 -23 -43 -23 -43 -6 0 10 15 43 33 73 24 41 52 67 115 111 110 74 138
103 173 172 23 44 38 61 62 69 47 17 266 132 440 231 82 47 87 51 87 83 0 38
0 39 -17 20z m-1815 -1048 c27 -27 24 -29 -178 -139 -36 -19 -92 -50 -125 -69
-33 -18 -94 -51 -135 -73 -41 -22 -111 -60 -155 -84 -44 -25 -84 -45 -90 -46
-5 -1 -14 -7 -20 -14 -5 -6 -45 -30 -87 -53 -43 -23 -78 -44 -78 -47 0 -2 39
17 88 43 48 26 110 59 137 74 28 14 66 36 85 47 19 11 141 77 270 148 129 70
238 130 243 132 4 2 7 2 7 0 0 -5 -118 -77 -126 -77 -2 0 -57 -30 -122 -66
-64 -36 -162 -91 -217 -122 -55 -30 -149 -83 -210 -117 -270 -151 -333 -185
-346 -185 -8 0 1 10 19 21 17 12 32 23 32 26 0 3 -11 -2 -24 -11 -17 -10 -27
-12 -31 -5 -9 13 -11 11 60 44 33 15 67 33 75 40 16 14 151 89 188 105 12 5
22 14 22 20 0 5 9 10 20 10 11 0 20 3 20 8 0 4 14 13 31 21 16 7 28 15 26 17
-7 7 -49 -13 -222 -107 -88 -47 -180 -96 -205 -108 -94 -45 5 15 214 130 396
217 721 396 766 422 53 31 52 31 68 15z"/>
<path d="M2858 1802 c-123 -70 -195 -116 -128 -82 54 27 270 152 270 156 0 6
2 8 -142 -74z"/>
<path d="M1068 1444 c-38 -20 -35 -28 3 -9 17 9 35 15 40 13 8 -3 -77 -53
-226 -134 -22 -12 -119 -65 -216 -118 -98 -53 -180 -96 -184 -96 -3 0 -3 6 1
13 5 8 2 7 -10 -2 -25 -21 -17 -55 14 -59 31 -3 333 152 522 269 43 26 90 49
104 51 20 2 30 11 37 31 17 51 -27 73 -85 41z m52 -28 c-18 -16 -199 -113
-185 -99 10 11 186 113 195 113 2 0 -2 -6 -10 -14z m-225 -125 c-14 -12 -191
-106 -182 -96 8 9 178 104 187 105 2 0 0 -4 -5 -9z m-200 -109 c-16 -14 -171
-95 -160 -84 10 10 156 92 165 92 2 0 0 -4 -5 -8z"/>
<path d="M1055 1276 c-49 -29 -180 -101 -290 -161 -252 -137 -310 -172 -310
-187 0 -15 -246 -149 -263 -143 -7 3 -11 1 -7 -4 4 -8 -74 -58 -158 -100 -21
-11 -27 -20 -27 -47 0 -19 3 -34 8 -34 4 0 75 38 157 83 323 179 673 370 830
453 124 65 217 121 227 138 10 15 -31 56 -56 55 -12 0 -61 -24 -111 -53z m131
33 c11 -18 -12 -33 -181 -120 -88 -46 -191 -100 -230 -121 -110 -58 -179 -91
-188 -89 -4 0 -10 -6 -13 -14 -3 -8 -10 -13 -15 -10 -4 3 -25 -1 -45 -10 -51
-21 -65 -19 -26 5 30 19 257 144 437 241 39 20 106 58 150 83 84 48 99 53 111
35z"/>
<path d="M678 1226 c-78 -44 -88 -58 -13 -17 55 30 86 51 75 51 -3 0 -31 -15
-62 -34z"/>
<path d="M2399 1193 c-10 -11 -10 -14 -1 -9 6 4 12 4 12 -1 0 -15 -19 -38 -32
-38 -7 -1 -12 -6 -11 -13 4 -17 -54 -44 -80 -37 -17 5 -19 4 -7 -4 9 -6 10
-11 3 -11 -6 0 -20 -3 -30 -6 -15 -5 -15 -4 -3 5 9 6 10 11 3 11 -29 0 -40
-31 -48 -137 -12 -169 -12 -173 19 -200 33 -28 61 -29 103 -3 39 23 48 40 107
198 49 131 58 202 32 238 -13 17 -13 14 -3 -23 10 -39 8 -49 -23 -120 -18 -43
-44 -109 -57 -148 -36 -109 -103 -155 -153 -105 -25 25 -26 79 -3 127 14 29
14 42 4 86 -8 34 -8 54 -1 61 7 7 10 3 10 -13 0 -13 5 -41 11 -62 10 -31 9
-42 -3 -61 -26 -40 -32 -97 -12 -119 44 -49 109 -4 129 90 4 18 27 75 51 127
24 51 44 100 44 109 0 26 -19 55 -38 56 -14 0 -14 2 3 9 15 7 16 9 4 9 -9 1
-23 -7 -30 -16z m41 -51 c0 -16 -20 -73 -44 -128 -25 -54 -48 -116 -51 -137
-8 -42 -47 -80 -79 -75 -29 4 -34 69 -10 114 16 29 17 39 6 79 -16 62 -16 62
21 70 53 12 105 43 124 75 22 38 33 38 33 2z"/>
<path d="M1275 569 c-16 -11 -189 -108 -382 -215 -194 -108 -350 -200 -347
-205 2 -4 -18 -20 -46 -34 -27 -14 -50 -23 -50 -20 0 2 18 14 40 25 22 11 40
23 40 26 0 3 -36 -14 -79 -37 -44 -24 -77 -48 -74 -53 3 -5 1 -6 -5 -2 -6 4
-35 -7 -64 -24 l-53 -31 67 2 c37 1 65 6 62 11 -3 4 3 11 13 15 10 3 42 21 71
40 29 18 58 34 65 36 7 1 14 4 17 7 13 14 59 38 93 49 20 7 35 16 32 21 -3 4
9 13 25 20 17 7 30 16 30 21 0 9 -24 2 -55 -17 -11 -6 -31 -15 -45 -19 -41
-11 0 13 262 154 67 35 327 182 405 227 31 18 33 18 50 1 23 -23 14 -31 -102
-93 -49 -26 -130 -71 -180 -99 -49 -28 -106 -58 -125 -68 -63 -32 -129 -72
-142 -86 -7 -8 3 -5 22 6 19 12 94 52 165 91 72 38 183 100 249 136 65 37 120
65 123 62 2 -2 -26 -21 -64 -42 -37 -20 -122 -67 -188 -104 -66 -37 -239 -134
-385 -215 -146 -82 -267 -150 -270 -153 -3 -2 15 -2 40 0 31 4 80 26 155 68
61 35 178 100 260 145 483 263 485 265 485 310 0 65 -52 85 -115 44z"/>
<path d="M2986 461 c-3 -4 -47 -32 -97 -62 -50 -30 -105 -62 -121 -72 -296
-177 -453 -270 -498 -296 -55 -31 -55 -31 -22 -31 19 0 46 8 60 19 35 24 72
43 72 37 0 -3 -17 -17 -37 -31 -73 -49 -3 -26 95 32 53 31 149 87 212 124 63
37 168 100 233 140 117 71 117 72 117 110 0 39 -4 47 -14 30z m-366 -265 c0
-2 -33 -23 -72 -47 -40 -23 -84 -49 -98 -58 -14 -8 -20 -10 -15 -4 9 10 176
113 183 113 1 0 2 -2 2 -4z"/>
<path d="M2752 351 c-34 -21 -66 -42 -70 -46 -10 -12 94 47 121 67 37 29 16
20 -51 -21z"/>
<path d="M2939 245 c-62 -32 -73 -47 -65 -90 6 -30 11 -35 35 -35 15 0 42 5
60 11 27 9 31 16 31 46 l0 34 -31 -21 c-16 -12 -28 -25 -25 -28 3 -2 12 1 21
8 9 7 18 10 21 7 3 -3 -9 -13 -26 -22 -18 -9 -30 -12 -26 -7 3 5 -6 15 -19 22
-14 7 -25 17 -25 22 0 4 25 22 55 39 30 17 55 33 55 35 0 8 -16 3 -61 -21z"/>
<path d="M2424 158 c-76 -45 -168 -99 -204 -120 -36 -21 -59 -38 -52 -38 11 0
117 61 370 212 28 17 39 28 29 28 -2 0 -66 -37 -143 -82z"/>
</g>
</svg>
