<?xml version="1.0" standalone="no"?>
<!DOCTYPE svg PUBLIC "-//W3C//DTD SVG 20010904//EN"
 "http://www.w3.org/TR/2001/REC-SVG-20010904/DTD/svg10.dtd">
<svg version="1.0" xmlns="http://www.w3.org/2000/svg"
 width="300.000000pt" height="300.000000pt" viewBox="0 0 300.000000 300.000000"
 preserveAspectRatio="xMidYMid meet">
<metadata>
Created by potrace 1.10, written by Peter Selinger 2001-2011
</metadata>
<g transform="translate(0.000000,300.000000) scale(0.100000,-0.100000)"
fill="#000000" stroke="none">
<path d="M1785 2965 c-44 -18 -135 -61 -203 -94 -67 -34 -124 -61 -127 -61 -2
0 -59 -26 -127 -59 -68 -32 -235 -111 -373 -176 -137 -65 -338 -159 -445 -210
-189 -90 -254 -120 -427 -200 l-83 -38 0 -39 c0 -22 3 -37 7 -35 5 3 42 20 83
40 41 19 138 65 215 102 77 37 165 78 195 92 30 14 100 47 155 73 55 27 143
68 195 93 52 25 163 77 245 117 83 40 258 123 390 185 572 269 525 245 477
245 -24 0 -53 -5 -64 -11 -14 -7 -23 -8 -27 -1 -4 7 -36 -2 -86 -23z"/>
<path d="M2110 2987 c-14 -6 -302 -143 -640 -305 -746 -358 -879 -421 -995
-475 -325 -152 -470 -225 -473 -240 -3 -15 0 -15 35 -3 21 8 94 41 163 74 69
33 168 80 220 105 52 24 144 68 204 97 60 29 115 53 122 54 8 1 17 5 21 10 8
7 92 46 101 46 3 0 -14 -14 -37 -31 -40 -28 -108 -63 -341 -172 -467 -220
-484 -229 -488 -261 -2 -14 -1 -26 1 -26 3 0 132 61 288 136 439 211 489 234
502 234 7 0 -7 -16 -29 -35 -23 -19 -47 -47 -53 -63 -7 -16 -17 -29 -24 -29
-7 0 -68 -28 -137 -61 -69 -33 -213 -102 -320 -154 -232 -112 -234 -112 -229
-126 5 -13 87 14 184 62 197 97 428 206 436 206 15 0 10 -27 -7 -44 -8 -9 -27
-19 -42 -23 -15 -3 -85 -32 -155 -65 -70 -32 -132 -58 -138 -58 -11 0 -137
-58 -219 -100 -46 -24 -55 -33 -58 -59 -2 -17 0 -31 3 -31 4 0 142 65 308 145
165 80 303 145 307 145 4 0 4 -15 2 -32 -4 -29 -3 -31 11 -20 13 11 17 10 27
-5 9 -15 10 -11 8 22 -4 73 13 183 29 189 12 5 14 1 9 -21 -3 -16 5 -4 19 26
14 29 38 69 55 88 17 19 28 38 25 43 -17 28 185 145 301 174 34 9 164 66 290
127 313 152 946 455 964 462 8 3 -9 6 -39 6 -65 1 -147 -34 -604 -261 -65 -32
-125 -58 -132 -58 -7 0 -15 -3 -17 -7 -3 -9 -25 -20 -278 -141 -91 -43 -178
-82 -195 -86 -62 -15 2 21 220 124 61 29 178 85 260 125 83 40 175 83 205 96
30 12 66 30 80 39 14 9 41 23 60 30 19 7 44 20 55 27 11 7 27 13 37 13 10 0
18 3 18 8 0 4 20 15 44 25 46 19 70 40 64 55 -2 5 -14 5 -28 -1z"/>
<path d="M2460 2973 c-30 -14 -143 -69 -250 -121 -107 -52 -285 -138 -395
-192 -110 -53 -254 -123 -320 -156 -91 -45 -134 -60 -180 -65 l-60 -6 80 -2
c44 -1 109 -8 145 -15 56 -12 67 -12 81 0 8 8 18 14 22 14 3 0 180 86 393 190
213 105 388 190 390 190 2 0 77 36 166 81 90 45 179 87 198 94 l35 14 -61 0
c-71 1 -70 1 -434 -178 -129 -63 -238 -114 -242 -113 -5 1 -8 -2 -8 -6 0 -4
-17 -14 -37 -21 -21 -8 -45 -19 -53 -25 -33 -25 -81 -47 -89 -41 -5 3 -12 1
-15 -4 -8 -12 -292 -151 -308 -151 -12 0 30 39 43 40 8 0 149 66 169 79 14 9
389 193 575 281 44 21 90 41 103 45 12 3 22 10 22 14 0 4 6 8 13 8 20 0 77 45
77 60 0 16 6 17 -60 -14z"/>
<path d="M2900 2992 c-27 -8 -369 -174 -725 -351 -481 -238 -535 -263 -565
-257 -14 3 -2 -5 25 -18 43 -20 54 -21 75 -11 46 23 142 37 229 34 l86 -3 245
121 c135 66 352 173 483 236 130 64 237 118 237 121 0 8 -51 -13 -69 -27 -8
-7 -15 -10 -15 -8 -1 3 -91 -40 -201 -94 -110 -54 -202 -99 -205 -100 -3 -1
-53 -25 -111 -53 -58 -29 -111 -52 -117 -52 -6 0 -12 -3 -14 -7 -1 -5 -37 -24
-78 -43 -41 -19 -82 -40 -91 -47 -8 -7 -23 -13 -32 -13 -9 0 -19 -5 -22 -10
-7 -11 -47 -6 -89 10 -33 12 -34 24 -1 18 14 -3 22 -1 18 5 -8 14 19 27 42 21
16 -4 17 -3 5 5 -11 8 -3 15 40 35 29 14 57 23 62 20 4 -3 8 -1 8 5 0 13 159
93 171 86 10 -7 44 10 44 22 0 4 9 7 20 5 15 -1 16 0 7 7 -10 6 -5 11 18 20
18 6 37 8 43 4 5 -3 7 -1 4 4 -9 14 15 23 40 17 11 -3 25 2 34 12 13 16 12 16
-9 5 -13 -7 -26 -11 -28 -8 -9 8 66 38 78 31 6 -4 8 -3 5 3 -6 10 4 16 152 87
99 48 117 54 105 34 -5 -8 -1 -8 12 2 30 22 30 24 9 17 -20 -7 -20 -7 -1 8 19
14 28 17 71 19 11 1 20 8 20 16 0 8 9 16 20 19 11 2 31 12 45 23 l25 20 -25
-7 c-14 -4 -46 -18 -72 -30 -27 -13 -48 -19 -48 -15 0 5 8 11 18 14 16 5 47
45 40 51 -2 1 -10 0 -18 -3z m-100 -96 c0 -7 -172 -87 -177 -83 -4 4 27 22
117 68 33 17 60 24 60 15z m-215 -105 c-20 -18 -136 -73 -142 -67 -8 8 -9 7
72 43 78 35 83 37 70 24z m-278 -138 c-3 -5 -27 -19 -54 -31 -26 -13 -56 -28
-67 -34 -46 -25 -106 -46 -106 -38 0 5 11 12 25 16 14 3 25 11 25 17 0 6 3 8
6 5 3 -3 42 13 87 37 79 41 95 46 84 28z m-237 -118 c0 -10 -183 -95 -203 -95
-13 1 21 22 78 50 93 46 125 57 125 45z"/>
<path d="M2645 2614 c-192 -96 -391 -193 -441 -216 l-90 -42 60 -29 c34 -15
81 -48 106 -71 33 -32 63 -49 112 -65 l68 -21 237 120 c305 153 295 146 299
193 2 20 -1 37 -6 37 -6 0 -10 -4 -10 -8 0 -5 -37 -26 -82 -47 -46 -22 -123
-61 -171 -87 -49 -27 -93 -45 -99 -42 -9 6 38 39 52 36 3 0 12 5 20 12 8 7 31
19 50 26 19 8 55 26 80 40 25 14 73 39 107 55 42 20 63 36 63 48 0 9 -3 17 -6
17 -6 0 -120 -57 -478 -239 -98 -50 -184 -91 -190 -91 -6 1 -23 11 -38 23
l-28 22 368 184 c202 101 361 186 355 188 -9 3 -9 10 3 28 9 14 14 39 12 63
l-3 39 -350 -173z m289 87 c-11 -10 -76 -32 -80 -28 -2 2 15 13 38 25 40 20
63 22 42 3z m-94 -40 c0 -10 -193 -111 -210 -111 -24 0 -6 17 40 37 28 12 51
22 53 22 1 0 27 14 57 30 63 35 60 34 60 22z m-230 -118 c0 -10 -201 -108
-217 -107 -7 1 -13 -2 -13 -6 0 -4 -28 -21 -62 -38 -77 -37 -101 -45 -92 -31
6 10 362 189 377 189 4 0 7 -3 7 -7z m-85 -265 c-53 -27 -99 -47 -102 -44 -6
6 15 18 117 70 36 18 69 31 74 28 4 -2 -36 -27 -89 -54z"/>
<path d="M345 2364 c-44 -20 -84 -40 -90 -45 -13 -13 12 -4 87 33 32 15 62 28
68 28 5 0 12 5 15 10 8 13 11 14 -80 -26z"/>
<path d="M1180 2345 c-198 -52 -329 -150 -381 -286 -32 -84 -32 -183 -1 -251
35 -75 57 -77 26 -2 -24 58 -16 194 15 259 36 73 126 157 213 199 100 47 174
60 316 53 125 -5 196 -24 279 -73 l44 -25 52 25 c166 81 379 40 504 -97 20
-22 45 -37 68 -41 98 -19 214 -99 267 -185 30 -48 47 -135 36 -190 -10 -55
-57 -129 -100 -157 -56 -37 -1240 -629 -1306 -653 -55 -21 -75 -23 -160 -18
-114 6 -197 32 -273 85 -64 44 -123 119 -146 184 -11 30 -20 43 -25 35 -14
-22 -8 88 7 148 17 65 63 144 102 175 21 16 23 22 13 41 -12 21 -12 21 -50
-16 -21 -20 -53 -67 -72 -103 -31 -62 -33 -72 -33 -166 0 -92 3 -107 31 -166
84 -176 258 -280 468 -280 50 0 111 5 135 11 25 5 146 61 270 123 568 284
1010 511 1051 540 60 43 106 110 125 182 14 54 14 65 -1 133 -22 93 -77 185
-139 233 -56 43 -136 83 -185 93 -21 5 -55 26 -86 55 -102 97 -216 131 -362
111 -48 -7 -111 -23 -140 -36 l-52 -24 -23 22 c-38 39 -178 79 -292 83 -84 4
-116 0 -195 -21z"/>
<path d="M2768 2241 l-226 -116 -30 18 c-57 33 -47 17 13 -21 60 -38 132 -114
172 -182 24 -39 53 -143 53 -187 0 -51 -30 -145 -60 -190 -17 -24 -25 -41 -18
-37 7 4 -5 -12 -27 -35 -22 -23 -45 -39 -53 -36 -7 2 -11 1 -7 -4 3 -5 -10
-19 -29 -30 -37 -23 -51 -27 -40 -10 4 8 0 7 -15 -1 -12 -6 -18 -16 -15 -22 5
-8 1 -9 -10 -5 -11 5 -15 3 -10 -5 5 -7 2 -9 -8 -6 -8 4 -15 1 -15 -7 0 -10 8
-10 34 3 24 11 30 18 21 25 -9 5 -6 6 8 3 14 -4 43 9 95 44 52 35 63 41 37 18
-41 -37 -247 -153 -256 -144 -3 3 -1 6 4 6 6 0 19 7 30 15 15 12 11 12 -18 -1
-20 -10 -36 -21 -35 -26 2 -9 -52 -38 -548 -292 -137 -71 -282 -146 -321 -167
-46 -25 -78 -37 -90 -32 -11 4 -15 3 -11 -4 18 -28 -158 -82 -303 -93 -100 -8
-84 -12 40 -12 41 0 104 8 139 17 54 14 398 182 743 363 46 24 101 52 123 63
22 11 49 25 60 31 19 11 135 71 335 174 113 59 127 59 89 -2 -49 -80 -107
-116 -594 -365 -525 -268 -733 -370 -790 -385 -91 -24 -224 -25 -330 -2 -99
22 -185 30 -185 17 0 -4 -64 -39 -142 -78 -147 -71 -460 -234 -535 -277 -35
-21 -43 -30 -43 -54 0 -31 8 -37 25 -21 18 17 729 401 743 401 7 0 50 -10 95
-22 96 -26 292 -30 367 -9 77 22 189 76 700 339 664 341 672 346 722 439 21
39 87 256 112 365 5 20 23 37 74 66 37 21 88 47 114 58 45 18 48 21 48 57 l0
38 -116 -62 c-63 -34 -116 -60 -118 -58 -5 7 -26 72 -24 74 2 2 57 30 123 64
138 71 143 75 126 95 -8 10 -9 16 -1 21 5 3 10 24 10 46 l0 40 -157 -81 -157
-80 -22 27 c-12 16 -20 31 -19 34 2 3 83 46 179 95 155 79 173 91 164 107 -6
12 -6 23 2 32 6 7 10 29 8 48 l-3 34 -227 -116z m220 54 c-6 -7 -237 -125
-243 -125 -3 0 -5 4 -5 10 0 11 120 73 120 62 0 -4 4 -2 8 4 10 16 84 53 106
54 11 0 17 -2 14 -5z m-262 -134 c-7 -11 -92 -51 -108 -51 -5 0 -3 6 4 14 19
18 78 48 78 39 0 -4 5 -2 12 5 13 13 23 8 14 -7z m264 -80 c0 -5 -8 -11 -17
-15 -10 -3 -64 -30 -121 -60 -56 -29 -104 -50 -107 -46 -3 4 12 16 33 25 20
10 39 21 42 24 7 8 153 81 163 81 4 0 7 -4 7 -9z"/>
<path d="M1405 2130 c-22 -3 -67 -18 -100 -32 -378 -165 -365 -159 -386 -199
-24 -49 -24 -59 5 -101 l24 -35 -40 -39 c-37 -36 -40 -42 -36 -84 7 -67 75
-200 117 -227 38 -25 95 -30 136 -11 21 10 31 9 55 -5 16 -10 49 -17 79 -17
42 0 56 5 86 31 28 25 35 38 35 69 0 38 1 38 73 69 39 16 135 59 212 95 80 37
144 61 150 56 5 -4 29 -13 53 -19 86 -24 162 23 162 99 0 29 5 39 20 43 22 6
35 46 26 80 -8 33 -57 103 -107 154 -63 64 -139 70 -250 19 -29 -14 -63 -26
-73 -26 -11 0 -43 16 -72 36 -58 40 -108 53 -169 44z m105 -73 c14 -7 47 -28
73 -47 43 -31 46 -35 27 -42 -27 -10 -51 -34 -43 -42 4 -3 -7 -4 -23 0 -37 7
-115 -25 -146 -61 -16 -19 -29 -24 -46 -20 -27 7 -99 -23 -126 -53 -13 -15
-16 -29 -12 -47 5 -21 12 -25 41 -25 43 0 122 36 136 61 6 13 21 19 43 19 40
0 122 34 129 54 3 8 27 18 54 22 33 5 56 16 76 35 19 20 39 29 60 29 35 0 116
36 124 56 2 7 0 22 -7 33 -7 15 -8 21 0 21 22 0 67 -30 84 -54 16 -25 16 -26
-9 -26 -28 0 -81 -19 -173 -61 -35 -16 -65 -29 -67 -29 -7 0 -178 -76 -271
-121 -45 -21 -84 -39 -87 -39 -3 0 -40 -16 -83 -36 -44 -21 -80 -32 -81 -27
-2 6 -26 43 -53 81 -66 97 -66 96 -37 78 17 -12 34 -15 53 -10 47 12 132 55
138 70 3 8 19 14 36 14 17 0 59 13 94 29 86 39 96 73 35 126 l-23 20 22 -38
c12 -21 22 -42 22 -46 0 -5 -34 -23 -76 -42 l-77 -33 -28 32 c-16 18 -29 39
-29 47 0 22 146 83 200 84 14 0 36 -5 50 -12z m342 -24 c10 -9 18 -20 18 -25
0 -4 -25 -20 -56 -34 -53 -24 -57 -25 -75 -8 -10 9 -19 21 -19 25 0 6 91 55
109 58 3 1 13 -6 23 -16z m-139 -43 c-6 -21 -28 -27 -38 -10 -9 15 3 30 25 30
13 0 17 -5 13 -20z m-467 -47 c11 -16 24 -33 28 -40 4 -8 -15 -22 -60 -43 -37
-16 -74 -30 -83 -30 -20 0 -65 65 -56 80 9 15 105 58 131 59 11 1 29 -11 40
-26z m443 8 c6 -10 7 -22 3 -26 -14 -14 -73 -34 -86 -29 -17 6 -31 37 -19 41
4 2 19 10 33 17 35 20 58 19 69 -3z m313 -37 c17 -36 -1 -50 -43 -35 -50 17
-108 13 -145 -10 -33 -20 -40 -34 -46 -89 -3 -29 -5 -30 -242 -136 l-169 -76
-38 21 c-85 48 -202 -1 -211 -88 -6 -65 -70 -68 -108 -5 -12 19 -21 37 -19 39
2 2 30 15 62 29 31 13 57 30 57 37 0 7 -32 64 -72 127 -55 90 -69 118 -61 131
20 31 41 24 72 -26 91 -147 135 -213 144 -213 14 0 143 55 452 195 149 67 281
126 295 132 31 13 57 1 72 -33z m-938 -6 c-13 -43 -17 -46 -49 -27 l-29 18 34
15 c47 21 52 20 44 -6z m484 -10 c22 -22 13 -34 -48 -63 -58 -28 -60 -28 -80
-10 -25 23 -19 31 43 60 61 28 69 29 85 13z m492 -33 c0 -26 -15 -41 -25 -26
-8 14 5 62 16 55 5 -3 9 -16 9 -29z m-110 -40 c57 -29 24 -104 -38 -90 -62 13
-80 68 -32 92 32 16 35 16 70 -2z m-562 -7 c21 -21 13 -33 -43 -61 -44 -21
-60 -25 -75 -17 -33 18 -22 39 33 64 61 29 69 30 85 14z m445 -50 c-4 -30 -10
-48 -19 -48 -7 0 -15 3 -17 8 -5 8 31 97 37 91 2 -2 2 -25 -1 -51z m187 -4
c-8 -33 -28 -59 -38 -49 -2 1 2 21 9 44 16 53 40 57 29 5z m-979 -76 c26 -40
45 -77 42 -84 -2 -6 -21 -17 -42 -24 -31 -10 -43 -10 -62 1 l-24 13 34 7 c68
14 71 90 4 92 -30 2 -32 7 -17 55 7 23 19 12 65 -60z m-99 -43 c-5 -42 -18
-53 -27 -24 -4 13 -1 27 11 40 9 10 18 19 19 19 0 0 -1 -16 -3 -35z m79 19
c11 -14 10 -18 -6 -30 -10 -8 -22 -14 -26 -14 -14 0 -31 30 -25 45 7 20 40 19
57 -1z m292 -128 c36 -27 9 -96 -38 -96 -55 0 -99 75 -57 99 24 14 74 13 95
-3z m-137 -92 c-7 -26 -13 -29 -35 -15 -12 8 -10 17 10 58 l24 48 3 -34 c2
-19 1 -44 -2 -57z m198 29 c-6 -27 -33 -58 -42 -49 -2 3 2 21 9 40 16 43 43
50 33 9z"/>
<path d="M681 1899 c-1 -15 6 -42 14 -62 8 -19 11 -37 8 -41 -4 -3 -1 -6 5 -6
6 0 9 -7 5 -17 -5 -12 -3 -14 7 -8 9 5 11 4 6 -4 -11 -17 -23 -5 -36 34 -10
29 -16 35 -41 35 -20 0 -29 5 -29 16 0 9 -3 14 -7 12 -5 -2 -33 -16 -63 -30
-274 -129 -550 -269 -550 -277 0 -19 34 -12 107 24 40 19 74 35 77 35 3 0 85
39 183 86 98 48 195 93 216 100 36 13 40 12 63 -11 30 -31 24 -46 -16 -38 -38
7 -23 13 -467 -188 -24 -10 -48 -19 -54 -19 -6 0 -24 -9 -40 -21 -16 -11 -29
-18 -29 -14 0 3 -9 1 -20 -5 -14 -7 -20 -21 -20 -45 l0 -34 127 63 c343 169
482 236 492 236 14 0 3 -60 -15 -80 -8 -8 -146 -80 -306 -160 -263 -130 -329
-170 -285 -170 14 0 194 82 360 164 70 34 87 40 87 26 0 -20 -20 -46 -40 -53
-10 -4 -7 -6 8 -6 26 -1 27 -6 8 -57 -7 -22 -16 -59 -20 -84 l-7 -45 19 34 19
34 6 -54 c3 -30 8 -70 11 -89 l6 -35 -11 38 c-10 32 -15 37 -41 37 -36 0 -413
-193 -413 -212 0 -22 34 -9 227 87 157 79 189 91 199 79 6 -7 9 -22 6 -33 -5
-20 21 -25 36 -6 5 6 7 4 6 -5 -3 -20 24 -82 54 -122 14 -18 22 -39 20 -46 -5
-13 28 -52 44 -52 4 0 27 -19 52 -42 24 -24 41 -36 37 -28 -4 8 0 6 8 -4 9
-11 16 -16 16 -10 0 5 6 2 13 -7 14 -18 83 -56 73 -40 -4 7 -1 8 8 5 9 -3 16
-10 16 -15 0 -4 7 -5 17 -2 12 5 14 3 8 -7 -6 -10 -4 -12 7 -7 9 3 54 -1 100
-9 54 -10 111 -13 163 -10 129 10 147 21 37 23 -173 3 -314 35 -406 93 -51 33
-61 36 -50 18 4 -7 3 -8 -5 -4 -6 4 -9 11 -7 15 6 10 -98 113 -106 106 -3 -4
-9 -1 -14 6 -5 8 -3 10 6 4 8 -5 11 -3 8 6 -3 8 -10 13 -15 12 -5 -1 -9 8 -9
20 1 13 -4 21 -12 19 -8 -1 -11 1 -8 6 3 5 -3 31 -14 58 -10 27 -20 42 -20 34
-1 -10 -4 -9 -10 5 -4 11 -7 61 -5 110 2 83 2 85 -5 25 l-7 -65 0 90 c1 114
27 199 81 261 22 25 41 43 43 41 2 -2 -12 -27 -31 -55 -36 -54 -76 -150 -75
-180 0 -9 8 8 18 38 28 86 59 139 119 202 30 32 51 58 47 58 -4 0 0 9 10 20
22 25 43 27 24 3 -13 -16 -12 -17 3 -5 10 8 14 20 11 30 -6 14 -4 15 9 5 26
-22 27 -3 1 46 -13 27 -30 70 -38 97 -9 35 -13 41 -14 23z"/>
<path d="M2374 1775 c-14 -14 -31 -25 -39 -25 -8 0 -15 -5 -15 -11 0 -16 92
-119 106 -119 27 0 24 22 -10 62 -27 32 -33 44 -25 55 6 7 18 13 26 13 10 0
13 6 9 16 -3 9 -6 20 -6 25 0 16 -21 9 -46 -16z"/>
<path d="M2230 1707 c-20 -10 -25 -20 -25 -52 0 -33 5 -43 34 -62 58 -39 131
-22 131 30 0 23 -22 21 -43 -3 -19 -22 -25 -24 -47 -10 -12 7 -6 13 27 27 24
10 43 23 43 30 0 13 -61 53 -81 53 -8 0 -25 -6 -39 -13z m60 -35 c0 -5 -11
-14 -25 -20 -20 -9 -25 -9 -25 2 0 7 3 16 7 19 9 10 43 9 43 -1z"/>
<path d="M2080 1680 c-12 -8 -13 -13 -3 -29 10 -15 10 -20 0 -24 -9 -3 -9 -8
2 -20 7 -9 17 -14 22 -11 5 3 22 -10 39 -29 35 -40 53 -47 98 -35 29 8 32 11
21 24 -7 9 -21 13 -34 10 -31 -8 -73 37 -55 59 17 20 -5 51 -26 34 -9 -8 -15
-5 -24 10 -12 23 -18 25 -40 11z"/>
<path d="M2013 1598 c-16 -8 -23 -20 -23 -38 0 -38 23 -54 65 -47 26 4 35 2
35 -9 0 -8 -10 -14 -25 -14 -30 0 -34 -26 -6 -35 28 -9 71 15 78 43 8 35 -29
65 -69 57 -33 -8 -38 10 -5 19 22 6 22 7 3 21 -23 17 -23 17 -53 3z"/>
<path d="M1872 1538 c-14 -14 -16 -58 -3 -58 5 0 14 7 21 15 14 16 40 20 40 6
0 -5 -7 -14 -15 -21 -22 -18 -15 -49 17 -73 26 -19 29 -20 46 -4 10 9 21 14
24 11 4 -3 16 -1 27 6 21 11 20 13 -30 70 -43 50 -57 60 -83 60 -18 0 -37 -5
-44 -12z"/>
<path d="M1760 1470 c-11 -11 -31 -20 -45 -20 -13 0 -28 -6 -32 -14 -4 -8 -17
-15 -27 -17 -32 -6 -28 -22 19 -87 41 -56 48 -61 66 -52 20 11 19 13 -16 56
-38 46 -41 74 -8 74 10 -1 33 -21 51 -45 32 -44 54 -55 67 -35 4 6 -7 28 -24
49 -37 47 -39 61 -8 61 16 0 34 -14 56 -45 28 -39 35 -44 52 -35 18 10 18 13
-17 58 -55 73 -97 89 -134 52z"/>
<path d="M170 1351 c-30 -15 -81 -40 -112 -54 -32 -15 -58 -31 -58 -35 0 -7
224 99 238 113 13 13 -18 2 -68 -24z"/>
<path d="M1533 1365 c-55 -23 -50 -89 9 -125 18 -11 44 -20 58 -20 36 0 70 27
70 56 0 29 -13 31 -39 3 -13 -14 -28 -19 -47 -17 -27 4 -26 6 24 29 53 25 53
25 35 47 -25 31 -72 43 -110 27z m57 -45 c0 -9 -50 -23 -57 -17 -2 3 3 12 12
20 15 16 45 13 45 -3z"/>
<path d="M1377 1339 c-15 -9 -16 -13 -6 -26 10 -12 10 -16 -1 -23 -12 -7 -12
-11 0 -25 7 -9 19 -14 26 -11 14 5 44 -35 44 -59 0 -10 -10 -15 -30 -15 -24 0
-35 8 -56 40 -28 43 -31 44 -53 31 -12 -7 -10 -15 7 -43 29 -47 53 -67 89 -74
26 -5 37 -1 57 19 16 17 39 27 63 29 26 2 38 8 38 18 0 10 -9 14 -27 13 -20
-1 -35 7 -54 30 -23 28 -24 32 -10 43 14 10 14 13 2 24 -9 6 -20 9 -25 6 -6
-4 -15 3 -21 14 -12 23 -17 24 -43 9z"/>
<path d="M2330 1310 c-6 -11 -15 -20 -21 -20 -6 0 -7 5 -4 11 4 5 -20 -3 -52
-20 -34 -17 -60 -36 -60 -45 0 -12 19 -6 77 25 43 22 77 46 77 54 0 20 -4 19
-17 -5z"/>
<path d="M305 1289 c-65 -33 -244 -128 -260 -138 -10 -6 -16 -7 -35 -10 -5 0
-10 -7 -10 -15 0 -10 63 18 187 81 104 53 192 99 198 104 20 19 -22 7 -80 -22z"/>
<path d="M1210 1213 c-28 -10 -60 -47 -60 -69 0 -38 40 -75 87 -81 35 -5 45
-2 67 20 33 33 33 59 -1 96 -28 30 -66 43 -93 34z m61 -59 c31 -37 -33 -71
-65 -35 -15 17 -16 23 -6 36 16 20 54 19 71 -1z"/>
<path d="M970 1188 c-30 -11 -56 -22 -58 -23 -4 -4 19 -40 84 -131 46 -65 52
-71 72 -60 l21 11 -24 30 c-48 59 -25 71 57 29 35 -18 58 -24 77 -19 25 7 26
7 6 22 -11 8 -38 23 -60 34 -36 16 -39 21 -37 51 6 65 -53 89 -138 56z m94
-43 c5 -15 -29 -45 -51 -45 -11 0 -39 39 -31 44 2 1 14 7 28 13 28 12 46 8 54
-12z"/>
<path d="M2056 1168 c3 -4 -4 -12 -15 -17 -25 -14 -34 -14 -26 -1 4 6 -5 5
-20 -2 -16 -7 -21 -14 -14 -18 7 -5 5 -9 -6 -14 -24 -9 -27 -8 -19 6 4 7 3 8
-5 4 -6 -4 -8 -12 -5 -18 5 -7 2 -9 -8 -6 -8 4 -15 0 -15 -7 0 -13 72 18 148
64 30 18 30 19 6 18 -14 -1 -23 -5 -21 -9z"/>
<path d="M380 1111 c0 -5 -35 -24 -77 -41 -108 -45 -153 -69 -153 -81 0 -6 5
-7 12 -3 7 4 8 3 4 -4 -5 -8 -15 -8 -32 -2 -17 7 -23 7 -19 0 4 -6 -5 -10 -19
-10 -14 0 -26 -4 -26 -10 0 -5 -7 -10 -15 -10 -8 0 -14 -6 -12 -12 1 -7 -8
-14 -21 -16 -17 -3 -22 -10 -22 -33 l0 -29 53 29 c28 15 120 63 202 106 83 42
152 79 153 80 2 2 1 13 -3 24 -6 21 -25 29 -25 12z"/>
<path d="M1886 1078 c5 -8 2 -9 -10 -5 -10 4 -15 3 -11 -3 6 -10 0 -12 -39
-14 -10 -1 -20 -9 -22 -18 -2 -15 5 -14 49 9 63 31 61 29 42 37 -11 4 -14 2
-9 -6z"/>
<path d="M465 997 c-58 -20 -432 -212 -454 -233 -29 -27 0 -27 65 1 67 29 325
165 377 199 19 13 38 17 62 13 32 -5 33 -4 22 14 -13 21 -27 22 -72 6z"/>
<path d="M1720 985 c-30 -17 -44 -19 -35 -4 4 6 -12 1 -34 -11 -23 -11 -39
-24 -37 -29 3 -4 -6 -13 -20 -20 -31 -14 -37 -14 -29 0 4 6 -12 1 -34 -11 -24
-12 -39 -25 -35 -31 4 -7 0 -9 -13 -5 -11 3 -27 -1 -39 -10 -18 -15 -18 -15 3
-5 28 14 36 14 28 0 -4 -5 57 22 134 61 78 38 141 72 141 75 0 7 -1 6 -30 -10z"/>
<path d="M420 863 c-14 -5 -27 -11 -120 -50 -19 -9 -78 -36 -130 -62 -52 -25
-98 -47 -102 -47 -5 -1 -13 -2 -19 -3 -6 0 -8 -8 -5 -16 3 -9 1 -15 -7 -14
-29 4 -37 -3 -37 -31 0 -35 0 -35 42 -12 18 10 116 62 218 115 102 53 194 103
205 111 20 15 19 15 -5 15 -14 0 -32 -3 -40 -6z"/>
<path d="M490 837 c0 -15 9 -32 21 -40 21 -16 22 -15 -423 -246 -49 -25 -88
-51 -88 -59 0 -18 22 -11 155 54 246 120 383 204 385 236 0 4 -11 24 -25 44
-24 35 -25 36 -25 11z"/>
<path d="M1356 809 c4 -8 -1 -9 -17 -4 -16 4 -20 3 -11 -3 11 -7 10 -10 -3
-16 -26 -9 -42 -7 -25 4 18 12 2 12 -25 0 -20 -9 -20 -9 0 -10 20 -1 20 -1 0
-10 -13 -6 -15 -9 -5 -9 8 0 37 10 65 22 38 18 45 25 32 30 -12 4 -16 3 -11
-4z"/>
<path d="M475 638 c-44 -17 -82 -34 -85 -38 -3 -4 -19 -11 -37 -14 -17 -4 -37
-14 -44 -22 -6 -8 -17 -14 -24 -14 -7 0 -18 -7 -25 -15 -7 -8 -21 -15 -31 -15
-11 0 -19 -4 -19 -8 0 -5 -18 -17 -40 -27 -22 -10 -45 -24 -50 -31 -6 -6 -20
-10 -30 -7 -14 4 -20 0 -20 -10 0 -10 -13 -18 -35 -23 -30 -5 -35 -10 -35 -35
0 -29 8 -36 26 -20 5 4 63 36 129 71 66 34 181 94 255 133 74 39 149 79 165
89 30 18 30 18 5 17 -14 0 -61 -14 -105 -31z"/>
<path d="M640 661 c0 -14 49 -43 61 -35 7 4 -1 14 -18 25 -31 21 -43 24 -43
10z"/>
</g>
</svg>
